<svg width="16" height="16" viewBox="0 0 16 16" fill="none" xmlns="http://www.w3.org/2000/svg">
<rect x="1.9928" y="0.00012207" width="1.75946" height="15.7768" fill="black"/>
<rect x="8.3269" y="0.00012207" width="1.75946" height="15.7768" fill="black"/>
<rect x="10.6813" y="0.166382" width="1.75946" height="15.7768" fill="black"/>
<rect width="3.15475" height="5.28167" transform="matrix(-0.0131961 -0.999913 0.9991 -0.0424061 10.723 3.37848)" fill="black"/>
<rect width="3.15475" height="5.28167" transform="matrix(-0.0131961 -0.999913 0.9991 -0.0424061 10.723 15.9999)" fill="black"/>
<rect width="3.15475" height="3.52111" transform="matrix(-0.0131961 -0.999913 0.9991 -0.0424061 11.0748 9.85547)" fill="black"/>
<rect width="2.71363" height="14.31" transform="matrix(0.398576 -0.917135 0.58187 0.813282 2.69617 2.48877)" fill="black"/>
<path d="M9.46533 2.48877L8.38374 6.27464e-06L0.903852 10.4547C0.582494 10.9038 0.500431 11.6786 0.720558 12.1851L1.20428 13.2982C1.31435 13.5514 1.53383 13.5747 1.6945 13.3501L9.46533 2.48877Z" fill="black"/>
</svg>
